inDegrees=no
num_controls=7
num_derivatives=13
num_iterations=123
num_multipliers=7
num_parameters=0
num_slacks=7
num_states=26
objective=5.581113
objective_accelerations=0.427459
objective_balance=0.044177
objective_effort=0.417485
objective_height=4.620143
objective_ligament=0.071849
solver_duration=1274.531262
status=Solve_Succeeded
success=true
DataType=double
version=3
OpenSimVersion=4.4-2022-07-23-0e9fedc
endheader
time	/jointset/ground_pelvis/pelvis_tilt/value	/jointset/ground_pelvis/pelvis_tx/value	/jointset/ground_pelvis/pelvis_ty/value	/jointset/hip_l/hip_flexion_l/value	/jointset/hip_l/hip_adduction_l/value	/jointset/hip_l/hip_rotation_l/value	/jointset/back/lumbar_extension/value	/jointset/patellofemoral_l/patellar_flexion_l/value	/jointset/knee_l/knee_flexion_l/value	/jointset/knee_l/knee_adduction_l/value	/jointset/knee_l/knee_rotation_l/value	/jointset/ankle_l/ankle_angle_l/value	/jointset/subtalar_l/subtalar_angle_l/value	/jointset/ground_pelvis/pelvis_tilt/speed	/jointset/ground_pelvis/pelvis_tx/speed	/jointset/ground_pelvis/pelvis_ty/speed	/jointset/hip_l/hip_flexion_l/speed	/jointset/hip_l/hip_adduction_l/speed	/jointset/hip_l/hip_rotation_l/speed	/jointset/back/lumbar_extension/speed	/jointset/patellofemoral_l/patellar_flexion_l/speed	/jointset/knee_l/knee_flexion_l/speed	/jointset/knee_l/knee_adduction_l/speed	/jointset/knee_l/knee_rotation_l/speed	/jointset/ankle_l/ankle_angle_l/speed	/jointset/subtalar_l/subtalar_angle_l/speed	/forceset/tau_hip_flexion_l	/forceset/tau_hip_adduction_l	/forceset/tau_hip_rotation_l	/forceset/tau_knee_flexion_l	/forceset/tau_ankle_angle_l	/forceset/tau_subtalar_angle_l	/forceset/tau_lumbar_extension	lambda_cid13_p0	lambda_cid13_p1	lambda_cid13_p2	lambda_cid13_p3	lambda_cid13_p4	lambda_cid13_p5	lambda_cid14_p0	/jointset/ground_pelvis/pelvis_tilt/accel	/jointset/ground_pelvis/pelvis_tx/accel	/jointset/ground_pelvis/pelvis_ty/accel	/jointset/hip_l/hip_flexion_l/accel	/jointset/hip_l/hip_adduction_l/accel	/jointset/hip_l/hip_rotation_l/accel	/jointset/back/lumbar_extension/accel	/jointset/patellofemoral_l/patellar_flexion_l/accel	/jointset/knee_l/knee_flexion_l/accel	/jointset/knee_l/knee_adduction_l/accel	/jointset/knee_l/knee_rotation_l/accel	/jointset/ankle_l/ankle_angle_l/accel	/jointset/subtalar_l/subtalar_angle_l/accel	gamma_cid13_p0	gamma_cid13_p1	gamma_cid13_p2	gamma_cid13_p3	gamma_cid13_p4	gamma_cid13_p5	gamma_cid14_p0
0	-0.03682271988486416	0.05667758463918444	0.9203415899307872	0.3085811930696054	-0.295640474416993	-0.3016072385776298	-0.3879500408040475	0.2499276582270815	0.249927658227084	-0.1745329251994329	-0.1745329251994329	-0.0008036543073733089	0.0004376050544797372	0	0	0	0	0	0	0	0	0	0	0	0	0	0.07008305352195644	-0.02536195701704529	-0.02228913412042739	-0.2600385777386558	0.2347936378839655	-0.04283394604125554	0.01029328680835062	30.61432894595927	10.68901385971419	0.7581931635689173	-4.859613859923927	-631.5707089072793	-51.93905667068857	-23.19695517631946	-0.4328516726193422	-1.570287351452067	-0.7574336070187861	7.460411259329033	-0.7974319854174919	2.999151655254885	-6.910136578760255	8.423270025308002	8.423270025306747	1.056111011735215	-0.05953889145620479	1.860935614325936	-0.2195303901891089	-3.662170151778375e-09	1.132069920784776e-07	8.628830856231434e-08	-1.56314540177016e-08	1.12383726699638e-07	-2.624364917405385e-08	-3.180400259401418e-09
0.01	-0.03684113180303671	0.05660112716064925	0.9203047540816055	0.3089428192731419	-0.2956800837910881	-0.3014569309931886	-0.3882915645967155	0.250339998118831	0.2503399981188429	-0.1744827176762943	-0.174532717659842	-0.0007115896995432614	0.0004265554852023094	-0.003626147365195463	-0.01510158020932857	-0.007319525655107847	0.07178574535497842	-0.007849448719780073	0.02988746073732212	-0.06762166654081882	0.08205671376691091	0.08205671376690915	0.01004969458681929	4.19093870437625e-05	0.01848486313478645	-0.002108440371427442	0.06321955297407859	-0.04573347058389066	-0.02135104489546574	-0.2553088085410476	0.2239427623819693	-0.01925188892178794	0.01714588358863015	27.88918404106201	1.098193116023541	2.088809403777292	-6.060089179956548	-635.1599875068597	-71.59451244543448	-23.20172129727476	-0.3190696320161816	-1.45160915614333	-0.7120429408235326	6.956725275376341	-0.7678698893709722	2.957427849995415	-6.585717893608261	8.035183000864183	8.035183000864562	0.9804829753004242	0.03584750994688323	1.853056089133958	-0.1913080086155498	-2.804956939746283e-08	1.235321238412188e-07	1.228767133632365e-07	1.605836318979771e-08	-2.230032846690069e-09	-5.116165084491229e-08	-5.260866192217329e-09
0.02	-0.0368941198675484	0.05637935071992788	0.9201961567966592	0.3100061167506125	-0.2957960213672057	-0.3010129718879746	-0.3892888122951586	0.2515605673379541	0.2515605673379571	-0.1743317905799159	-0.174532123384227	-0.000432517575149113	0.000397460082611506	-0.006915229272335104	-0.02906379243723644	-0.01435228715289403	0.1403342547817137	-0.01526564040407072	0.05873030415561795	-0.1311447811563197	0.1616458654730832	0.1616458654730818	0.02014276089944383	7.548502056628462e-05	0.03740150331273848	-0.003609166662692545	0.05635605242627506	-0.0661049841507283	-0.02041295567055565	-0.250579039343404	0.2130918868799777	0.00433016819768996	0.02399848036896514	25.22828426961787	-8.503863675593758	3.421202914861918	-7.390150439468183	-637.8068538906476	-91.16994725928127	-23.21570195595811	-0.3654385810086444	-1.34241375516751	-0.700080775554453	6.812964073680333	-0.7107805783196955	2.790228191449227	-6.090426193696913	7.929757613160259	7.929757613159443	1.064785356896122	-0.06120564216085946	1.947291022959498	-0.09798757415657409	-5.243696864314728e-08	1.338572556039601e-07	1.594651181641588e-07	4.774818039729702e-08	-1.168437923930181e-07	-7.607965251577072e-08	-7.341332125033239e-09
0.03	-0.03697891960163697	0.05602250204380287	0.9200182471219335	0.3117413176621853	-0.295984253508029	-0.3002856661386203	-0.3909040999780162	0.2535654841228909	0.2535654841229047	-0.1740803316346007	-0.1745314972616731	3.646856463615321e-05	0.0003555867597609802	-0.01002875302659558	-0.04222983189723521	-0.0212200156530395	0.2063897055737339	-0.02234800762450544	0.08660511362180004	-0.1915810934787359	0.2389849323587254	0.2389849323587262	0.03006673869662314	5.64575948835392e-05	0.05632018816225013	-0.004757557211050734	0.05186456868570619	-0.0542762646157719	-0.01995032256768299	-0.247015698690465	0.2121677128370315	-0.004181833446366804	0.02802398632580297	24.56206397783377	-4.806199196169283	2.963906143322218	-7.131178155453842	-638.9139977317087	-82.75114912290844	-23.2383000714848	-0.281919438793487	-1.29227272910946	-0.678697898201199	6.454394461162074	-0.702089670994454	2.767229809011911	-5.970484461773406	7.583098829263145	7.58309882926387	0.9438997802740665	0.02877942634775433	1.852826633970682	-0.1221128935809343	-7.21682079014044e-08	1.002926694033009e-07	2.241655544123114e-07	5.971345695122073e-08	-1.846406181618475e-07	-1.264771212259335e-07	-1.819491925340198e-08
0.04	-0.03709437660647436	0.05553627823554009	0.9197719443600154	0.3141275848575423	-0.2962423342964778	-0.2992833877976477	-0.3931138009261421	0.2563332150973026	0.2563332150973087	-0.1737320937534841	-0.1745308552694747	0.0006923754365220634	0.0003024599117459479	-0.01304668342731066	-0.05493881886479037	-0.02803090459131743	0.2705475115337047	-0.02923536992850609	0.1137248224803511	-0.250027434211586	0.3142087033642494	0.3142087033642564	0.03949854805961009	7.865893398358416e-05	0.07478564973271704	-0.00585987169562805	0.04737308494522378	-0.04244754508081701	-0.01948768946491968	-0.2434523580374371	0.2112435387941126	-0.01269383509041423	0.03204949228268348	23.95682775033762	-1.114008026828796	2.501537456353199	-7.001104366553656	-639.1464369513214	-74.24659034037819	-23.26882608412865	-0.3463199103000134	-1.251003256678413	-0.688712863180943	6.433435107270362	-0.6717795950329492	2.639208069922721	-5.69243187578394	7.506698437136579	7.506698437136578	0.9663516700575316	-0.05295988920459637	1.856646367150951	-0.08877236140032788	-9.180344386095169e-08	6.58231405642211e-08	2.8944562017484e-07	7.127204194527691e-08	-2.51472146327017e-07	-1.773999397719582e-07	-2.922939547858625e-08
0.05	-0.03723949874436584	0.05492554048466172	0.919457758556528	0.3171454989622239	-0.296568088163748	-0.2980144632338951	-0.3958965801976381	0.2598424770980314	0.2598424770980425	-0.1732917179257598	-0.1745303598402548	0.001530966325910509	0.0002388774632225335	-0.01593921680245308	-0.06710359485322087	-0.03479855632170129	0.3326487214564107	-0.03585586497091284	0.1399103771961976	-0.3060751324943113	0.3872614791334574	0.3872614791334556	0.04852329898247604	2.841095736901509e-05	0.09288596287775765	-0.006811335320174851	0.04071187576590835	-0.04274540773412182	-0.01856714437794923	-0.2381128710779664	0.2037683947609071	-0.008065547273208348	0.03792171147414097	21.70944297344259	-2.746123187677223	2.779503517107384	-6.650514769411459	-640.1948150697026	-76.83800739895879	-23.30641559277817	-0.2549454415863853	-1.183429952488934	-0.6696871947697913	6.040465521222538	-0.6483020028438589	2.58573077905698	-5.492945666161172	7.147240434410511	7.147240434409141	0.862579496566221	0.0201885962860361	1.779736090401665	-0.09158419051549448	-1.047850281119461e-07	3.577830092605344e-08	3.221196374225693e-07	8.23790650629123e-08	-3.088768007198206e-07	-2.055219934407101e-07	-3.541238860899198e-08
